<svg xmlns="http://www.w3.org/2000/svg" width="43.041" height="39.454" viewBox="0 0 43.041 39.454">
  <g id="Group_1733" data-name="Group 1733" transform="translate(-25.6 -34.133)">
    <g id="Group_1732" data-name="Group 1732" transform="translate(25.6 34.133)">
      <path id="Path_3722" data-name="Path 3722" d="M37.337,34.133A11.737,11.737,0,0,0,25.6,45.871c0,11.285,13.09,22.067,19.205,26.869l.018.014.14.112,0,0a3.568,3.568,0,0,0,4.312,0v0l.042-.032.032-.025.035-.032c6.1-4.785,19.254-15.6,19.254-26.907A11.737,11.737,0,0,0,56.9,34.133c-6.2,0-9.783,5.38-9.783,5.38s-3.587-5.38-9.783-5.38Z" transform="translate(-25.6 -34.133)" fill="#a3b8f2"/>
    </g>
  </g>
</svg>
